<svg width="196" height="60" viewBox="0 0 196 60" fill="none" xmlns="http://www.w3.org/2000/svg">
<path d="M5.72656 11.3672H13.1562L26.4688 24.7266L39.7812 11.3672H47.2109V48H39.7812V21.6562L26.4688 34.4766L13.1562 21.6562V48H5.72656V11.3672ZM61.5031 11.3672H68.9797V48H61.5031V11.3672ZM83.2719 11.3672H101.905C104.717 11.3672 107.155 11.6641 109.217 12.2578C111.28 12.8359 112.991 13.6797 114.35 14.7891C115.709 15.8984 116.717 17.25 117.373 18.8438C118.045 20.4375 118.381 22.2422 118.381 24.2578C118.381 25.6172 118.217 26.9141 117.889 28.1484C117.561 29.3672 117.053 30.4922 116.366 31.5234C115.694 32.5547 114.842 33.4766 113.811 34.2891C112.78 35.0859 111.569 35.75 110.178 36.2812L118.147 48H109.053L102.162 37.5938H101.952L90.7016 37.5703V48H83.2719V11.3672ZM102.092 31.1484C103.498 31.1484 104.725 30.9844 105.772 30.6562C106.834 30.3281 107.717 29.8672 108.42 29.2734C109.139 28.6797 109.67 27.9609 110.014 27.1172C110.373 26.2578 110.553 25.3047 110.553 24.2578C110.553 22.2109 109.85 20.6328 108.444 19.5234C107.037 18.3984 104.92 17.8359 102.092 17.8359H90.7016V31.1484H102.092ZM144.486 11.3672H152.361L170.08 48H162.275L159.345 41.8359H137.947L135.111 48H127.283L144.486 11.3672ZM156.416 35.7188L148.494 19.0781L140.783 35.7188H156.416ZM179.637 11.3672H187.114V48H179.637V11.3672Z" fill="black"/>
</svg>
